<mxfile host="app.diagrams.net" modified="2023-08-05T13:44:17.765Z" agent="Mozilla/5.0 (Windows NT 10.0; Win64; x64) AppleWebKit/537.36 (KHTML, like Gecko) Chrome/115.0.0.0 Safari/537.36" etag="BzZAnwYcu8QQi75NQPAF" version="21.6.6" type="github">
  <diagram id="R2lEEEUBdFMjLlhIrx00" name="Page-1">
    <mxGraphModel dx="1050" dy="534" grid="1" gridSize="10" guides="1" tooltips="1" connect="1" arrows="1" fold="1" page="1" pageScale="1" pageWidth="850" pageHeight="1100" math="0" shadow="0" extFonts="Permanent Marker^https://fonts.googleapis.com/css?family=Permanent+Marker">
      <root>
        <mxCell id="0" />
        <mxCell id="1" parent="0" />
        <mxCell id="06fuQV10pNZMm1FipR0t-3" style="edgeStyle=orthogonalEdgeStyle;rounded=0;orthogonalLoop=1;jettySize=auto;html=1;exitX=0.5;exitY=0;exitDx=0;exitDy=0;entryX=0.5;entryY=1;entryDx=0;entryDy=0;endArrow=none;endFill=0;" edge="1" parent="1" source="06fuQV10pNZMm1FipR0t-1" target="06fuQV10pNZMm1FipR0t-2">
          <mxGeometry relative="1" as="geometry" />
        </mxCell>
        <mxCell id="06fuQV10pNZMm1FipR0t-36" style="edgeStyle=orthogonalEdgeStyle;rounded=0;orthogonalLoop=1;jettySize=auto;html=1;exitX=1;exitY=0.5;exitDx=0;exitDy=0;entryX=0;entryY=0.5;entryDx=0;entryDy=0;endArrow=none;endFill=0;" edge="1" parent="1" source="06fuQV10pNZMm1FipR0t-1" target="06fuQV10pNZMm1FipR0t-35">
          <mxGeometry relative="1" as="geometry" />
        </mxCell>
        <mxCell id="06fuQV10pNZMm1FipR0t-1" value="Reparticion" style="whiteSpace=wrap;html=1;align=center;" vertex="1" parent="1">
          <mxGeometry x="260" y="450" width="70" height="30" as="geometry" />
        </mxCell>
        <mxCell id="06fuQV10pNZMm1FipR0t-2" value="&lt;u&gt;codigoReparticion&lt;/u&gt;&lt;br&gt;nombre&lt;br&gt;email" style="ellipse;whiteSpace=wrap;html=1;align=center;" vertex="1" parent="1">
          <mxGeometry x="230" y="370" width="130" height="50" as="geometry" />
        </mxCell>
        <mxCell id="06fuQV10pNZMm1FipR0t-6" style="edgeStyle=orthogonalEdgeStyle;rounded=0;orthogonalLoop=1;jettySize=auto;html=1;exitX=0.5;exitY=0;exitDx=0;exitDy=0;entryX=0.5;entryY=1;entryDx=0;entryDy=0;endArrow=none;endFill=0;" edge="1" parent="1" source="06fuQV10pNZMm1FipR0t-4" target="06fuQV10pNZMm1FipR0t-5">
          <mxGeometry relative="1" as="geometry" />
        </mxCell>
        <mxCell id="06fuQV10pNZMm1FipR0t-70" style="edgeStyle=orthogonalEdgeStyle;rounded=0;orthogonalLoop=1;jettySize=auto;html=1;exitX=0.5;exitY=1;exitDx=0;exitDy=0;endArrow=none;endFill=0;" edge="1" parent="1" source="06fuQV10pNZMm1FipR0t-89" target="06fuQV10pNZMm1FipR0t-69">
          <mxGeometry relative="1" as="geometry" />
        </mxCell>
        <mxCell id="06fuQV10pNZMm1FipR0t-4" value="Pliego" style="whiteSpace=wrap;html=1;align=center;" vertex="1" parent="1">
          <mxGeometry x="540" y="450" width="60" height="30" as="geometry" />
        </mxCell>
        <mxCell id="06fuQV10pNZMm1FipR0t-5" value="&lt;u&gt;nroPliego&lt;/u&gt;&lt;br&gt;fechaRegistro&lt;br&gt;descripcion&lt;br&gt;forjas" style="ellipse;whiteSpace=wrap;html=1;align=center;" vertex="1" parent="1">
          <mxGeometry x="500" y="365" width="140" height="60" as="geometry" />
        </mxCell>
        <mxCell id="06fuQV10pNZMm1FipR0t-49" style="edgeStyle=orthogonalEdgeStyle;rounded=0;orthogonalLoop=1;jettySize=auto;html=1;exitX=0;exitY=0.5;exitDx=0;exitDy=0;entryX=1;entryY=0.5;entryDx=0;entryDy=0;endArrow=none;endFill=0;" edge="1" parent="1" source="06fuQV10pNZMm1FipR0t-7" target="06fuQV10pNZMm1FipR0t-8">
          <mxGeometry relative="1" as="geometry" />
        </mxCell>
        <mxCell id="06fuQV10pNZMm1FipR0t-7" value="Item" style="whiteSpace=wrap;html=1;align=center;" vertex="1" parent="1">
          <mxGeometry x="230" y="605" width="40" height="30" as="geometry" />
        </mxCell>
        <mxCell id="06fuQV10pNZMm1FipR0t-8" value="&lt;u&gt;nroItem&lt;/u&gt;&lt;br&gt;descripcion&lt;br&gt;cantidad" style="ellipse;whiteSpace=wrap;html=1;align=center;" vertex="1" parent="1">
          <mxGeometry x="120" y="600" width="100" height="40" as="geometry" />
        </mxCell>
        <mxCell id="06fuQV10pNZMm1FipR0t-52" style="edgeStyle=orthogonalEdgeStyle;rounded=0;orthogonalLoop=1;jettySize=auto;html=1;exitX=0.5;exitY=1;exitDx=0;exitDy=0;entryX=0.5;entryY=0;entryDx=0;entryDy=0;endArrow=none;endFill=0;" edge="1" parent="1" source="06fuQV10pNZMm1FipR0t-97" target="06fuQV10pNZMm1FipR0t-35">
          <mxGeometry relative="1" as="geometry" />
        </mxCell>
        <mxCell id="06fuQV10pNZMm1FipR0t-10" value="Rubros" style="whiteSpace=wrap;html=1;align=center;" vertex="1" parent="1">
          <mxGeometry x="407.5" y="270" width="55" height="30" as="geometry" />
        </mxCell>
        <mxCell id="06fuQV10pNZMm1FipR0t-44" style="edgeStyle=orthogonalEdgeStyle;rounded=0;orthogonalLoop=1;jettySize=auto;html=1;exitX=0.5;exitY=1;exitDx=0;exitDy=0;entryX=0.5;entryY=0;entryDx=0;entryDy=0;endArrow=none;endFill=0;" edge="1" parent="1" source="06fuQV10pNZMm1FipR0t-11" target="06fuQV10pNZMm1FipR0t-10">
          <mxGeometry relative="1" as="geometry" />
        </mxCell>
        <mxCell id="06fuQV10pNZMm1FipR0t-11" value="&lt;u&gt;codigo&lt;/u&gt;&lt;br&gt;descripcion&lt;br&gt;fechaVencimiento" style="ellipse;whiteSpace=wrap;html=1;align=center;" vertex="1" parent="1">
          <mxGeometry x="370" y="190" width="130" height="70" as="geometry" />
        </mxCell>
        <mxCell id="06fuQV10pNZMm1FipR0t-68" style="edgeStyle=orthogonalEdgeStyle;rounded=0;orthogonalLoop=1;jettySize=auto;html=1;exitX=0.5;exitY=1;exitDx=0;exitDy=0;entryX=0.5;entryY=0;entryDx=0;entryDy=0;endArrow=none;endFill=0;" edge="1" parent="1" source="06fuQV10pNZMm1FipR0t-13" target="06fuQV10pNZMm1FipR0t-14">
          <mxGeometry relative="1" as="geometry" />
        </mxCell>
        <mxCell id="06fuQV10pNZMm1FipR0t-13" value="Medios" style="whiteSpace=wrap;html=1;align=center;" vertex="1" parent="1">
          <mxGeometry x="415" y="720" width="60" height="30" as="geometry" />
        </mxCell>
        <mxCell id="06fuQV10pNZMm1FipR0t-14" value="&lt;u&gt;codigo&lt;/u&gt;&lt;br&gt;nombre&lt;br&gt;fechaPublicacion" style="ellipse;whiteSpace=wrap;html=1;align=center;" vertex="1" parent="1">
          <mxGeometry x="392.5" y="760" width="105" height="80" as="geometry" />
        </mxCell>
        <mxCell id="06fuQV10pNZMm1FipR0t-18" style="edgeStyle=orthogonalEdgeStyle;rounded=0;orthogonalLoop=1;jettySize=auto;html=1;exitX=0.5;exitY=1;exitDx=0;exitDy=0;endArrow=none;endFill=0;" edge="1" parent="1" source="06fuQV10pNZMm1FipR0t-16" target="06fuQV10pNZMm1FipR0t-17">
          <mxGeometry relative="1" as="geometry" />
        </mxCell>
        <mxCell id="06fuQV10pNZMm1FipR0t-66" style="edgeStyle=orthogonalEdgeStyle;rounded=0;orthogonalLoop=1;jettySize=auto;html=1;exitX=1;exitY=0.5;exitDx=0;exitDy=0;entryX=1;entryY=0.5;entryDx=0;entryDy=0;endArrow=none;endFill=0;" edge="1" parent="1" source="06fuQV10pNZMm1FipR0t-16" target="06fuQV10pNZMm1FipR0t-45">
          <mxGeometry relative="1" as="geometry" />
        </mxCell>
        <mxCell id="06fuQV10pNZMm1FipR0t-16" value="Proveedores" style="whiteSpace=wrap;html=1;align=center;" vertex="1" parent="1">
          <mxGeometry x="870" y="285" width="80" height="30" as="geometry" />
        </mxCell>
        <mxCell id="06fuQV10pNZMm1FipR0t-17" value="&lt;u&gt;nroLegajo&lt;/u&gt;&lt;br&gt;razonSocial&lt;br&gt;cuit&lt;br&gt;direccion&lt;br&gt;localidad&lt;br&gt;telefono&lt;br&gt;mail" style="ellipse;whiteSpace=wrap;html=1;align=center;" vertex="1" parent="1">
          <mxGeometry x="860" y="325" width="100" height="110" as="geometry" />
        </mxCell>
        <mxCell id="06fuQV10pNZMm1FipR0t-58" style="edgeStyle=orthogonalEdgeStyle;rounded=0;orthogonalLoop=1;jettySize=auto;html=1;exitX=0.5;exitY=1;exitDx=0;exitDy=0;entryX=0.5;entryY=0;entryDx=0;entryDy=0;endArrow=none;endFill=0;" edge="1" parent="1" source="06fuQV10pNZMm1FipR0t-83">
          <mxGeometry relative="1" as="geometry">
            <mxPoint x="910" y="170" as="targetPoint" />
          </mxGeometry>
        </mxCell>
        <mxCell id="06fuQV10pNZMm1FipR0t-19" value="Oferta" style="shape=ext;margin=3;double=1;whiteSpace=wrap;html=1;align=center;" vertex="1" parent="1">
          <mxGeometry x="880" y="60" width="60" height="30" as="geometry" />
        </mxCell>
        <mxCell id="06fuQV10pNZMm1FipR0t-56" style="edgeStyle=orthogonalEdgeStyle;rounded=0;orthogonalLoop=1;jettySize=auto;html=1;exitX=0.5;exitY=1;exitDx=0;exitDy=0;endArrow=none;endFill=0;" edge="1" parent="1" source="06fuQV10pNZMm1FipR0t-21" target="06fuQV10pNZMm1FipR0t-19">
          <mxGeometry relative="1" as="geometry" />
        </mxCell>
        <mxCell id="06fuQV10pNZMm1FipR0t-21" value="&lt;span style=&quot;border-bottom: 1px dotted&quot;&gt;nroOferta&lt;br&gt;valor&lt;br&gt;&lt;/span&gt;" style="ellipse;whiteSpace=wrap;html=1;align=center;" vertex="1" parent="1">
          <mxGeometry x="880" y="10" width="60" height="30" as="geometry" />
        </mxCell>
        <mxCell id="06fuQV10pNZMm1FipR0t-23" value="&lt;u&gt;codigo&lt;/u&gt;&lt;br&gt;nombre&lt;br&gt;apellido&lt;br&gt;email" style="ellipse;whiteSpace=wrap;html=1;align=center;" vertex="1" parent="1">
          <mxGeometry x="590" y="810" width="100" height="70" as="geometry" />
        </mxCell>
        <mxCell id="06fuQV10pNZMm1FipR0t-26" style="edgeStyle=orthogonalEdgeStyle;rounded=0;orthogonalLoop=1;jettySize=auto;html=1;exitX=0.5;exitY=1;exitDx=0;exitDy=0;entryX=0.5;entryY=0;entryDx=0;entryDy=0;endArrow=none;endFill=0;" edge="1" parent="1" source="06fuQV10pNZMm1FipR0t-24" target="06fuQV10pNZMm1FipR0t-23">
          <mxGeometry relative="1" as="geometry" />
        </mxCell>
        <mxCell id="06fuQV10pNZMm1FipR0t-24" value="Usuarios" style="whiteSpace=wrap;html=1;align=center;" vertex="1" parent="1">
          <mxGeometry x="610" y="770" width="60" height="30" as="geometry" />
        </mxCell>
        <mxCell id="06fuQV10pNZMm1FipR0t-28" style="edgeStyle=orthogonalEdgeStyle;rounded=0;orthogonalLoop=1;jettySize=auto;html=1;exitX=0.5;exitY=1;exitDx=0;exitDy=0;entryX=0.5;entryY=0;entryDx=0;entryDy=0;endArrow=none;endFill=0;" edge="1" parent="1" source="06fuQV10pNZMm1FipR0t-25" target="06fuQV10pNZMm1FipR0t-27">
          <mxGeometry relative="1" as="geometry" />
        </mxCell>
        <mxCell id="06fuQV10pNZMm1FipR0t-25" value="Roles" style="whiteSpace=wrap;html=1;align=center;" vertex="1" parent="1">
          <mxGeometry x="925" y="770" width="50" height="30" as="geometry" />
        </mxCell>
        <mxCell id="06fuQV10pNZMm1FipR0t-27" value="&lt;u&gt;codigo&lt;/u&gt;&lt;br&gt;descripcion" style="ellipse;whiteSpace=wrap;html=1;align=center;" vertex="1" parent="1">
          <mxGeometry x="910" y="810" width="80" height="40" as="geometry" />
        </mxCell>
        <mxCell id="06fuQV10pNZMm1FipR0t-37" style="edgeStyle=orthogonalEdgeStyle;rounded=0;orthogonalLoop=1;jettySize=auto;html=1;exitX=1;exitY=0.5;exitDx=0;exitDy=0;endArrow=none;endFill=0;" edge="1" parent="1" source="06fuQV10pNZMm1FipR0t-35" target="06fuQV10pNZMm1FipR0t-4">
          <mxGeometry relative="1" as="geometry" />
        </mxCell>
        <mxCell id="06fuQV10pNZMm1FipR0t-35" value="confecciona" style="shape=rhombus;perimeter=rhombusPerimeter;whiteSpace=wrap;html=1;align=center;" vertex="1" parent="1">
          <mxGeometry x="400" y="445" width="70" height="40" as="geometry" />
        </mxCell>
        <mxCell id="06fuQV10pNZMm1FipR0t-64" style="edgeStyle=orthogonalEdgeStyle;rounded=0;orthogonalLoop=1;jettySize=auto;html=1;exitX=0.5;exitY=1;exitDx=0;exitDy=0;entryX=0.5;entryY=0;entryDx=0;entryDy=0;endArrow=none;endFill=0;" edge="1" parent="1" source="06fuQV10pNZMm1FipR0t-102" target="06fuQV10pNZMm1FipR0t-45">
          <mxGeometry relative="1" as="geometry" />
        </mxCell>
        <mxCell id="06fuQV10pNZMm1FipR0t-38" value="" style="swimlane;startSize=0;" vertex="1" parent="1">
          <mxGeometry x="190" y="320" width="510" height="230" as="geometry" />
        </mxCell>
        <mxCell id="06fuQV10pNZMm1FipR0t-39" value="CONTRATACION" style="text;html=1;align=center;verticalAlign=middle;resizable=0;points=[];autosize=1;strokeColor=none;fillColor=none;" vertex="1" parent="06fuQV10pNZMm1FipR0t-38">
          <mxGeometry x="390" width="120" height="30" as="geometry" />
        </mxCell>
        <mxCell id="06fuQV10pNZMm1FipR0t-99" value="1..1" style="text;html=1;align=center;verticalAlign=middle;resizable=0;points=[];autosize=1;strokeColor=none;fillColor=none;" vertex="1" parent="06fuQV10pNZMm1FipR0t-38">
          <mxGeometry x="155" y="125" width="40" height="30" as="geometry" />
        </mxCell>
        <mxCell id="06fuQV10pNZMm1FipR0t-100" value="1..1" style="text;html=1;align=center;verticalAlign=middle;resizable=0;points=[];autosize=1;strokeColor=none;fillColor=none;" vertex="1" parent="06fuQV10pNZMm1FipR0t-38">
          <mxGeometry x="290" y="120" width="40" height="30" as="geometry" />
        </mxCell>
        <mxCell id="06fuQV10pNZMm1FipR0t-57" style="edgeStyle=orthogonalEdgeStyle;rounded=0;orthogonalLoop=1;jettySize=auto;html=1;exitX=0.5;exitY=1;exitDx=0;exitDy=0;endArrow=none;endFill=0;" edge="1" parent="1" source="06fuQV10pNZMm1FipR0t-81" target="06fuQV10pNZMm1FipR0t-16">
          <mxGeometry relative="1" as="geometry">
            <mxPoint x="910" y="230" as="sourcePoint" />
          </mxGeometry>
        </mxCell>
        <mxCell id="06fuQV10pNZMm1FipR0t-50" style="edgeStyle=orthogonalEdgeStyle;rounded=0;orthogonalLoop=1;jettySize=auto;html=1;exitX=0;exitY=0.5;exitDx=0;exitDy=0;entryX=1;entryY=0.5;entryDx=0;entryDy=0;endArrow=none;endFill=0;" edge="1" parent="1" source="06fuQV10pNZMm1FipR0t-104" target="06fuQV10pNZMm1FipR0t-7">
          <mxGeometry relative="1" as="geometry" />
        </mxCell>
        <mxCell id="06fuQV10pNZMm1FipR0t-63" style="edgeStyle=orthogonalEdgeStyle;rounded=0;orthogonalLoop=1;jettySize=auto;html=1;exitX=0.5;exitY=1;exitDx=0;exitDy=0;endArrow=none;endFill=0;" edge="1" parent="1" source="06fuQV10pNZMm1FipR0t-106" target="06fuQV10pNZMm1FipR0t-13">
          <mxGeometry relative="1" as="geometry" />
        </mxCell>
        <mxCell id="06fuQV10pNZMm1FipR0t-45" value="contratacion_publica" style="shape=rhombus;perimeter=rhombusPerimeter;whiteSpace=wrap;html=1;align=center;" vertex="1" parent="1">
          <mxGeometry x="385" y="590" width="120" height="60" as="geometry" />
        </mxCell>
        <mxCell id="06fuQV10pNZMm1FipR0t-47" style="edgeStyle=orthogonalEdgeStyle;rounded=0;orthogonalLoop=1;jettySize=auto;html=1;exitX=0;exitY=0.5;exitDx=0;exitDy=0;entryX=1;entryY=0.63;entryDx=0;entryDy=0;entryPerimeter=0;endArrow=none;endFill=0;" edge="1" parent="1" source="06fuQV10pNZMm1FipR0t-77" target="06fuQV10pNZMm1FipR0t-38">
          <mxGeometry relative="1" as="geometry" />
        </mxCell>
        <mxCell id="06fuQV10pNZMm1FipR0t-65" style="edgeStyle=orthogonalEdgeStyle;rounded=0;orthogonalLoop=1;jettySize=auto;html=1;exitX=0.5;exitY=0;exitDx=0;exitDy=0;entryX=0;entryY=0.75;entryDx=0;entryDy=0;endArrow=none;endFill=0;" edge="1" parent="1" source="06fuQV10pNZMm1FipR0t-79" target="06fuQV10pNZMm1FipR0t-16">
          <mxGeometry relative="1" as="geometry" />
        </mxCell>
        <mxCell id="06fuQV10pNZMm1FipR0t-46" value="contratacion_privada" style="shape=rhombus;perimeter=rhombusPerimeter;whiteSpace=wrap;html=1;align=center;" vertex="1" parent="1">
          <mxGeometry x="770" y="435" width="120" height="60" as="geometry" />
        </mxCell>
        <mxCell id="06fuQV10pNZMm1FipR0t-61" style="edgeStyle=orthogonalEdgeStyle;rounded=0;orthogonalLoop=1;jettySize=auto;html=1;exitX=1;exitY=0.5;exitDx=0;exitDy=0;entryX=0;entryY=0.5;entryDx=0;entryDy=0;endArrow=none;endFill=0;" edge="1" parent="1" source="06fuQV10pNZMm1FipR0t-95" target="06fuQV10pNZMm1FipR0t-16">
          <mxGeometry relative="1" as="geometry" />
        </mxCell>
        <mxCell id="06fuQV10pNZMm1FipR0t-62" style="edgeStyle=orthogonalEdgeStyle;rounded=0;orthogonalLoop=1;jettySize=auto;html=1;exitX=0;exitY=0.5;exitDx=0;exitDy=0;entryX=1;entryY=0.5;entryDx=0;entryDy=0;endArrow=none;endFill=0;" edge="1" parent="1" source="06fuQV10pNZMm1FipR0t-93" target="06fuQV10pNZMm1FipR0t-10">
          <mxGeometry relative="1" as="geometry" />
        </mxCell>
        <mxCell id="06fuQV10pNZMm1FipR0t-59" value="proveedor_tiene" style="shape=rhombus;perimeter=rhombusPerimeter;whiteSpace=wrap;html=1;align=center;" vertex="1" parent="1">
          <mxGeometry x="640" y="260" width="90" height="50" as="geometry" />
        </mxCell>
        <mxCell id="06fuQV10pNZMm1FipR0t-67" value="proveedor_realiza" style="shape=rhombus;double=1;perimeter=rhombusPerimeter;whiteSpace=wrap;html=1;align=center;" vertex="1" parent="1">
          <mxGeometry x="850" y="170" width="120" height="60" as="geometry" />
        </mxCell>
        <mxCell id="06fuQV10pNZMm1FipR0t-71" style="edgeStyle=orthogonalEdgeStyle;rounded=0;orthogonalLoop=1;jettySize=auto;html=1;exitX=1;exitY=0.5;exitDx=0;exitDy=0;endArrow=none;endFill=0;" edge="1" parent="1" source="06fuQV10pNZMm1FipR0t-91" target="06fuQV10pNZMm1FipR0t-24">
          <mxGeometry relative="1" as="geometry" />
        </mxCell>
        <mxCell id="06fuQV10pNZMm1FipR0t-69" value="aprueba" style="shape=rhombus;perimeter=rhombusPerimeter;whiteSpace=wrap;html=1;align=center;" vertex="1" parent="1">
          <mxGeometry x="540" y="650" width="60" height="40" as="geometry" />
        </mxCell>
        <mxCell id="06fuQV10pNZMm1FipR0t-73" style="edgeStyle=orthogonalEdgeStyle;rounded=0;orthogonalLoop=1;jettySize=auto;html=1;exitX=1;exitY=0.5;exitDx=0;exitDy=0;entryX=0;entryY=0.5;entryDx=0;entryDy=0;endArrow=none;endFill=0;" edge="1" parent="1" source="06fuQV10pNZMm1FipR0t-87" target="06fuQV10pNZMm1FipR0t-25">
          <mxGeometry relative="1" as="geometry" />
        </mxCell>
        <mxCell id="06fuQV10pNZMm1FipR0t-74" style="edgeStyle=orthogonalEdgeStyle;rounded=0;orthogonalLoop=1;jettySize=auto;html=1;exitX=0;exitY=0.5;exitDx=0;exitDy=0;entryX=1;entryY=0.5;entryDx=0;entryDy=0;endArrow=none;endFill=0;" edge="1" parent="1" source="06fuQV10pNZMm1FipR0t-85" target="06fuQV10pNZMm1FipR0t-24">
          <mxGeometry relative="1" as="geometry" />
        </mxCell>
        <mxCell id="06fuQV10pNZMm1FipR0t-72" value="usuario_tiene" style="shape=rhombus;perimeter=rhombusPerimeter;whiteSpace=wrap;html=1;align=center;" vertex="1" parent="1">
          <mxGeometry x="770" y="760" width="80" height="50" as="geometry" />
        </mxCell>
        <mxCell id="06fuQV10pNZMm1FipR0t-75" value="fechaAdjudicacion&lt;br&gt;descripcion&lt;br&gt;importe&lt;br&gt;formaPago" style="ellipse;whiteSpace=wrap;html=1;align=center;" vertex="1" parent="1">
          <mxGeometry x="770" y="495" width="140" height="70" as="geometry" />
        </mxCell>
        <mxCell id="06fuQV10pNZMm1FipR0t-76" value="fechaEvaluacion&lt;br&gt;valor" style="ellipse;whiteSpace=wrap;html=1;align=center;" vertex="1" parent="1">
          <mxGeometry x="340" y="635" width="100" height="40" as="geometry" />
        </mxCell>
        <mxCell id="06fuQV10pNZMm1FipR0t-78" value="" style="edgeStyle=orthogonalEdgeStyle;rounded=0;orthogonalLoop=1;jettySize=auto;html=1;exitX=0;exitY=0.5;exitDx=0;exitDy=0;entryX=1;entryY=0.63;entryDx=0;entryDy=0;entryPerimeter=0;endArrow=none;endFill=0;" edge="1" parent="1" source="06fuQV10pNZMm1FipR0t-46" target="06fuQV10pNZMm1FipR0t-77">
          <mxGeometry relative="1" as="geometry">
            <mxPoint x="770" y="465" as="sourcePoint" />
            <mxPoint x="700" y="465" as="targetPoint" />
          </mxGeometry>
        </mxCell>
        <mxCell id="06fuQV10pNZMm1FipR0t-77" value="0..M" style="text;html=1;align=center;verticalAlign=middle;resizable=0;points=[];autosize=1;strokeColor=none;fillColor=none;" vertex="1" parent="1">
          <mxGeometry x="700" y="450" width="50" height="30" as="geometry" />
        </mxCell>
        <mxCell id="06fuQV10pNZMm1FipR0t-80" value="" style="edgeStyle=orthogonalEdgeStyle;rounded=0;orthogonalLoop=1;jettySize=auto;html=1;exitX=0.5;exitY=0;exitDx=0;exitDy=0;entryX=0;entryY=0.75;entryDx=0;entryDy=0;endArrow=none;endFill=0;" edge="1" parent="1" source="06fuQV10pNZMm1FipR0t-46" target="06fuQV10pNZMm1FipR0t-79">
          <mxGeometry relative="1" as="geometry">
            <mxPoint x="830" y="435" as="sourcePoint" />
            <mxPoint x="870" y="308" as="targetPoint" />
          </mxGeometry>
        </mxCell>
        <mxCell id="06fuQV10pNZMm1FipR0t-79" value="1..N" style="text;html=1;align=center;verticalAlign=middle;resizable=0;points=[];autosize=1;strokeColor=none;fillColor=none;" vertex="1" parent="1">
          <mxGeometry x="750" y="365" width="50" height="30" as="geometry" />
        </mxCell>
        <mxCell id="06fuQV10pNZMm1FipR0t-82" value="" style="edgeStyle=orthogonalEdgeStyle;rounded=0;orthogonalLoop=1;jettySize=auto;html=1;exitX=0.5;exitY=1;exitDx=0;exitDy=0;endArrow=none;endFill=0;" edge="1" parent="1" target="06fuQV10pNZMm1FipR0t-81">
          <mxGeometry relative="1" as="geometry">
            <mxPoint x="910" y="230" as="sourcePoint" />
            <mxPoint x="910" y="285" as="targetPoint" />
          </mxGeometry>
        </mxCell>
        <mxCell id="06fuQV10pNZMm1FipR0t-81" value="0..M" style="text;html=1;align=center;verticalAlign=middle;resizable=0;points=[];autosize=1;strokeColor=none;fillColor=none;" vertex="1" parent="1">
          <mxGeometry x="885" y="240" width="50" height="30" as="geometry" />
        </mxCell>
        <mxCell id="06fuQV10pNZMm1FipR0t-84" value="" style="edgeStyle=orthogonalEdgeStyle;rounded=0;orthogonalLoop=1;jettySize=auto;html=1;exitX=0.5;exitY=1;exitDx=0;exitDy=0;entryX=0.5;entryY=0;entryDx=0;entryDy=0;endArrow=none;endFill=0;" edge="1" parent="1" source="06fuQV10pNZMm1FipR0t-19" target="06fuQV10pNZMm1FipR0t-83">
          <mxGeometry relative="1" as="geometry">
            <mxPoint x="910" y="90" as="sourcePoint" />
            <mxPoint x="910" y="170" as="targetPoint" />
          </mxGeometry>
        </mxCell>
        <mxCell id="06fuQV10pNZMm1FipR0t-83" value="0..1" style="text;html=1;align=center;verticalAlign=middle;resizable=0;points=[];autosize=1;strokeColor=none;fillColor=none;" vertex="1" parent="1">
          <mxGeometry x="890" y="120" width="40" height="30" as="geometry" />
        </mxCell>
        <mxCell id="06fuQV10pNZMm1FipR0t-86" value="" style="edgeStyle=orthogonalEdgeStyle;rounded=0;orthogonalLoop=1;jettySize=auto;html=1;exitX=0;exitY=0.5;exitDx=0;exitDy=0;entryX=1;entryY=0.5;entryDx=0;entryDy=0;endArrow=none;endFill=0;" edge="1" parent="1" source="06fuQV10pNZMm1FipR0t-72" target="06fuQV10pNZMm1FipR0t-85">
          <mxGeometry relative="1" as="geometry">
            <mxPoint x="770" y="785" as="sourcePoint" />
            <mxPoint x="670" y="785" as="targetPoint" />
          </mxGeometry>
        </mxCell>
        <mxCell id="06fuQV10pNZMm1FipR0t-85" value="1..N" style="text;html=1;align=center;verticalAlign=middle;resizable=0;points=[];autosize=1;strokeColor=none;fillColor=none;" vertex="1" parent="1">
          <mxGeometry x="690" y="770" width="50" height="30" as="geometry" />
        </mxCell>
        <mxCell id="06fuQV10pNZMm1FipR0t-88" value="" style="edgeStyle=orthogonalEdgeStyle;rounded=0;orthogonalLoop=1;jettySize=auto;html=1;exitX=1;exitY=0.5;exitDx=0;exitDy=0;entryX=0;entryY=0.5;entryDx=0;entryDy=0;endArrow=none;endFill=0;" edge="1" parent="1" source="06fuQV10pNZMm1FipR0t-72" target="06fuQV10pNZMm1FipR0t-87">
          <mxGeometry relative="1" as="geometry">
            <mxPoint x="850" y="785" as="sourcePoint" />
            <mxPoint x="925" y="785" as="targetPoint" />
          </mxGeometry>
        </mxCell>
        <mxCell id="06fuQV10pNZMm1FipR0t-87" value="1..N" style="text;html=1;align=center;verticalAlign=middle;resizable=0;points=[];autosize=1;strokeColor=none;fillColor=none;" vertex="1" parent="1">
          <mxGeometry x="860" y="770" width="50" height="30" as="geometry" />
        </mxCell>
        <mxCell id="06fuQV10pNZMm1FipR0t-90" value="" style="edgeStyle=orthogonalEdgeStyle;rounded=0;orthogonalLoop=1;jettySize=auto;html=1;exitX=0.5;exitY=1;exitDx=0;exitDy=0;endArrow=none;endFill=0;" edge="1" parent="1" source="06fuQV10pNZMm1FipR0t-4" target="06fuQV10pNZMm1FipR0t-89">
          <mxGeometry relative="1" as="geometry">
            <mxPoint x="570" y="480" as="sourcePoint" />
            <mxPoint x="570" y="650" as="targetPoint" />
          </mxGeometry>
        </mxCell>
        <mxCell id="06fuQV10pNZMm1FipR0t-89" value="0..N" style="text;html=1;align=center;verticalAlign=middle;resizable=0;points=[];autosize=1;strokeColor=none;fillColor=none;" vertex="1" parent="1">
          <mxGeometry x="545" y="570" width="50" height="30" as="geometry" />
        </mxCell>
        <mxCell id="06fuQV10pNZMm1FipR0t-92" value="" style="edgeStyle=orthogonalEdgeStyle;rounded=0;orthogonalLoop=1;jettySize=auto;html=1;exitX=1;exitY=0.5;exitDx=0;exitDy=0;endArrow=none;endFill=0;" edge="1" parent="1" source="06fuQV10pNZMm1FipR0t-69" target="06fuQV10pNZMm1FipR0t-91">
          <mxGeometry relative="1" as="geometry">
            <mxPoint x="600" y="670" as="sourcePoint" />
            <mxPoint x="640" y="770" as="targetPoint" />
          </mxGeometry>
        </mxCell>
        <mxCell id="06fuQV10pNZMm1FipR0t-91" value="0..1" style="text;html=1;align=center;verticalAlign=middle;resizable=0;points=[];autosize=1;strokeColor=none;fillColor=none;" vertex="1" parent="1">
          <mxGeometry x="620" y="710" width="40" height="30" as="geometry" />
        </mxCell>
        <mxCell id="06fuQV10pNZMm1FipR0t-94" value="" style="edgeStyle=orthogonalEdgeStyle;rounded=0;orthogonalLoop=1;jettySize=auto;html=1;exitX=0;exitY=0.5;exitDx=0;exitDy=0;entryX=1;entryY=0.5;entryDx=0;entryDy=0;endArrow=none;endFill=0;" edge="1" parent="1" source="06fuQV10pNZMm1FipR0t-59" target="06fuQV10pNZMm1FipR0t-93">
          <mxGeometry relative="1" as="geometry">
            <mxPoint x="650" y="285" as="sourcePoint" />
            <mxPoint x="463" y="285" as="targetPoint" />
          </mxGeometry>
        </mxCell>
        <mxCell id="06fuQV10pNZMm1FipR0t-93" value="1..M" style="text;html=1;align=center;verticalAlign=middle;resizable=0;points=[];autosize=1;strokeColor=none;fillColor=none;" vertex="1" parent="1">
          <mxGeometry x="530" y="270" width="50" height="30" as="geometry" />
        </mxCell>
        <mxCell id="06fuQV10pNZMm1FipR0t-96" value="" style="edgeStyle=orthogonalEdgeStyle;rounded=0;orthogonalLoop=1;jettySize=auto;html=1;exitX=1;exitY=0.5;exitDx=0;exitDy=0;entryX=0;entryY=0.5;entryDx=0;entryDy=0;endArrow=none;endFill=0;" edge="1" parent="1" source="06fuQV10pNZMm1FipR0t-59" target="06fuQV10pNZMm1FipR0t-95">
          <mxGeometry relative="1" as="geometry">
            <mxPoint x="740" y="285" as="sourcePoint" />
            <mxPoint x="870" y="300" as="targetPoint" />
          </mxGeometry>
        </mxCell>
        <mxCell id="06fuQV10pNZMm1FipR0t-95" value="1..M" style="text;html=1;align=center;verticalAlign=middle;resizable=0;points=[];autosize=1;strokeColor=none;fillColor=none;" vertex="1" parent="1">
          <mxGeometry x="750" y="270" width="50" height="30" as="geometry" />
        </mxCell>
        <mxCell id="06fuQV10pNZMm1FipR0t-98" value="" style="edgeStyle=orthogonalEdgeStyle;rounded=0;orthogonalLoop=1;jettySize=auto;html=1;exitX=0.5;exitY=1;exitDx=0;exitDy=0;entryX=0.5;entryY=0;entryDx=0;entryDy=0;endArrow=none;endFill=0;" edge="1" parent="1" source="06fuQV10pNZMm1FipR0t-10" target="06fuQV10pNZMm1FipR0t-97">
          <mxGeometry relative="1" as="geometry">
            <mxPoint x="435" y="300" as="sourcePoint" />
            <mxPoint x="435" y="445" as="targetPoint" />
          </mxGeometry>
        </mxCell>
        <mxCell id="06fuQV10pNZMm1FipR0t-97" value="1..1" style="text;html=1;align=center;verticalAlign=middle;resizable=0;points=[];autosize=1;strokeColor=none;fillColor=none;" vertex="1" parent="1">
          <mxGeometry x="415" y="365" width="40" height="30" as="geometry" />
        </mxCell>
        <mxCell id="06fuQV10pNZMm1FipR0t-103" value="" style="edgeStyle=orthogonalEdgeStyle;rounded=0;orthogonalLoop=1;jettySize=auto;html=1;exitX=0.5;exitY=1;exitDx=0;exitDy=0;entryX=0.5;entryY=0;entryDx=0;entryDy=0;endArrow=none;endFill=0;" edge="1" parent="1" source="06fuQV10pNZMm1FipR0t-38" target="06fuQV10pNZMm1FipR0t-102">
          <mxGeometry relative="1" as="geometry">
            <mxPoint x="445" y="550" as="sourcePoint" />
            <mxPoint x="445" y="590" as="targetPoint" />
          </mxGeometry>
        </mxCell>
        <mxCell id="06fuQV10pNZMm1FipR0t-102" value="0..M" style="text;html=1;align=center;verticalAlign=middle;resizable=0;points=[];autosize=1;strokeColor=none;fillColor=none;" vertex="1" parent="1">
          <mxGeometry x="420" y="550" width="50" height="30" as="geometry" />
        </mxCell>
        <mxCell id="06fuQV10pNZMm1FipR0t-105" value="" style="edgeStyle=orthogonalEdgeStyle;rounded=0;orthogonalLoop=1;jettySize=auto;html=1;exitX=0;exitY=0.5;exitDx=0;exitDy=0;entryX=1;entryY=0.5;entryDx=0;entryDy=0;endArrow=none;endFill=0;" edge="1" parent="1" source="06fuQV10pNZMm1FipR0t-45" target="06fuQV10pNZMm1FipR0t-104">
          <mxGeometry relative="1" as="geometry">
            <mxPoint x="385" y="620" as="sourcePoint" />
            <mxPoint x="270" y="620" as="targetPoint" />
          </mxGeometry>
        </mxCell>
        <mxCell id="06fuQV10pNZMm1FipR0t-104" value="1..N" style="text;html=1;align=center;verticalAlign=middle;resizable=0;points=[];autosize=1;strokeColor=none;fillColor=none;" vertex="1" parent="1">
          <mxGeometry x="295" y="605" width="50" height="30" as="geometry" />
        </mxCell>
        <mxCell id="06fuQV10pNZMm1FipR0t-107" value="" style="edgeStyle=orthogonalEdgeStyle;rounded=0;orthogonalLoop=1;jettySize=auto;html=1;exitX=0.5;exitY=1;exitDx=0;exitDy=0;endArrow=none;endFill=0;" edge="1" parent="1" source="06fuQV10pNZMm1FipR0t-45" target="06fuQV10pNZMm1FipR0t-106">
          <mxGeometry relative="1" as="geometry">
            <mxPoint x="445" y="650" as="sourcePoint" />
            <mxPoint x="445" y="720" as="targetPoint" />
          </mxGeometry>
        </mxCell>
        <mxCell id="06fuQV10pNZMm1FipR0t-106" value="1..N" style="text;html=1;align=center;verticalAlign=middle;resizable=0;points=[];autosize=1;strokeColor=none;fillColor=none;" vertex="1" parent="1">
          <mxGeometry x="420" y="670" width="50" height="30" as="geometry" />
        </mxCell>
        <mxCell id="06fuQV10pNZMm1FipR0t-108" value="1..N" style="text;html=1;align=center;verticalAlign=middle;resizable=0;points=[];autosize=1;strokeColor=none;fillColor=none;" vertex="1" parent="1">
          <mxGeometry x="740" y="600" width="50" height="30" as="geometry" />
        </mxCell>
        <mxCell id="06fuQV10pNZMm1FipR0t-112" value="CONTRATACION_PRIVADA(nroLegajo, nroPliego, fechaAdjudicacion, descripcion, importe, formaPago)&lt;br&gt;nroLegajo, nroPliego --- CP&lt;br&gt;nroLegajo --- CF (NN)&lt;br&gt;&lt;br&gt;CONTRATACION_PUBLICA (nroItem, nroLegajo, codigo, fechaEvaluacion, valor )&lt;br&gt;norItem, nroLegajo, codigo --- CP&lt;br&gt;nroItem --- CF (NN)&lt;br&gt;nroLegajo --- CF (NN)&lt;br&gt;codigo --- CF (NN)&lt;br&gt;&lt;br&gt;PROVEEDOR_TIENE (nroLegajo, codigo)&lt;br&gt;nroLegajo, codigo --- CP&lt;br&gt;nroLegajo --- CF (NN)&lt;br&gt;codigo --- CF (NN)&lt;br&gt;&lt;br&gt;PROVEEDORES (nroLegajo, nroOferta, razonSocial, cuit, direccion, localidad, telefono, mail)&lt;br&gt;nroLegajo, nroOferta --- CP&lt;br&gt;nroOferta --- CF (NULL)&lt;br&gt;&lt;br&gt;USUARIO_TIENE (codigoUsuario, codigoRoles)&lt;br&gt;codigoUsuario, codigoRoles --- CP&lt;br&gt;codigoUsuario --- CF (NN)&lt;br&gt;codigoRoles --- CF (NN)&lt;br&gt;" style="text;html=1;align=left;verticalAlign=middle;resizable=0;points=[];autosize=1;strokeColor=none;fillColor=none;" vertex="1" parent="1">
          <mxGeometry x="1030" y="160" width="580" height="340" as="geometry" />
        </mxCell>
      </root>
    </mxGraphModel>
  </diagram>
</mxfile>
